<svg width="66" height="63" viewBox="0 0 66 63" fill="none" xmlns="http://www.w3.org/2000/svg">
<path d="M48.809 61.1787C50.2711 60.2387 51.66 59.1893 52.9637 58.0396C54.2534 56.8921 55.4528 55.647 56.5513 54.3153C58.7275 51.6667 60.4654 48.6865 61.6989 45.4881C62.3101 43.9041 62.7911 42.2728 63.1369 40.6104C63.4793 38.9546 63.6912 37.2745 63.7706 35.5855C63.7972 34.7425 63.8132 33.8989 63.7706 33.0573C63.7492 32.6369 63.7379 32.2157 63.7086 31.7966L63.588 30.5412C63.3874 28.8752 63.0608 27.2268 62.6111 25.6102L62.248 24.4107L61.8281 23.2286C61.7922 23.13 61.7615 23.0287 61.7215 22.9334L61.6016 22.6436L61.3617 22.0645C61.2797 21.8726 61.2071 21.6767 61.1178 21.4874L60.8513 20.921C60.1461 19.408 59.3172 17.9558 58.3731 16.5791C57.4245 15.2095 56.3721 13.9147 55.2253 12.7062L54.7901 12.2584C54.6449 12.1099 54.5036 11.9566 54.349 11.818L53.4381 10.9657L52.4879 10.1581C52.3326 10.0195 52.1647 9.89689 52.0008 9.76962L51.507 9.38913C50.1802 8.39078 48.7787 7.49568 47.315 6.71173L46.2048 6.15066C45.829 5.97541 45.4479 5.81215 45.072 5.64157L44.7882 5.51496L44.499 5.39768L43.9193 5.17312C43.7253 5.09982 43.5348 5.01919 43.3389 4.95189L42.7491 4.75665C41.1779 4.23489 39.57 3.81109 37.9314 3.56121C34.653 3.02768 31.3098 3.02768 28.0314 3.56121C26.3945 3.82327 24.783 4.22454 23.2143 4.76065L22.6246 4.95655C22.4287 5.02319 22.2375 5.10449 22.0442 5.17778L21.4645 5.40234L21.1746 5.51429L20.8908 5.6409C20.5129 5.81082 20.1318 5.97408 19.758 6.14933L18.6458 6.7104C17.1822 7.49443 15.7809 8.38975 14.4545 9.38847L13.9614 9.76896C13.7968 9.89623 13.6282 10.0195 13.4743 10.1574L12.522 10.9651L11.6111 11.8167C11.4565 11.9559 11.3153 12.1092 11.17 12.2571L10.7349 12.7049C9.5899 13.914 8.53889 15.2087 7.59102 16.5777L6.90201 17.6213L6.26298 18.6967C6.21101 18.7867 6.15437 18.8747 6.10573 18.9673L5.95913 19.2438L5.6666 19.7969C5.57198 19.9828 5.46669 20.1627 5.38007 20.3533L5.11353 20.9197L4.84698 21.4861C4.75769 21.6747 4.68506 21.8706 4.6031 22.0632L4.36321 22.6422L4.24327 22.9321C4.20595 23.0294 4.17263 23.1287 4.13665 23.2266L3.71685 24.4087L3.35369 25.6082C2.90428 27.2249 2.57773 28.8732 2.37681 30.5392L2.2562 31.7946C2.22688 32.2144 2.21556 32.6349 2.19357 33.0553C2.15359 33.8969 2.17024 34.7405 2.19357 35.5835C2.34625 38.9736 3.04537 42.3169 4.26393 45.4841C5.49831 48.6814 7.23661 51.6603 9.41284 54.308C10.5107 55.6402 11.71 56.8855 12.9998 58.0329C14.3028 59.1842 15.6912 60.2349 17.1532 61.1761C16.3802 60.7763 15.6106 60.3558 14.8729 59.884C14.1259 59.4262 13.407 58.9225 12.698 58.4041C11.2882 57.3443 9.96853 56.1697 8.75248 54.8924C8.45328 54.5672 8.14543 54.2493 7.85957 53.9108L7.4251 53.4084L7.0073 52.892L6.79806 52.6334L6.59816 52.3669L6.19835 51.8338C6.06508 51.6552 5.94047 51.4727 5.81119 51.2921C5.68192 51.1115 5.55198 50.9309 5.43204 50.7437C5.18749 50.3732 4.93827 50.0047 4.71238 49.6215C4.59777 49.4309 4.47782 49.243 4.36721 49.0498L4.03803 48.4681L3.87477 48.1769L3.71952 47.881L3.40899 47.288L3.1178 46.6882C3.02118 46.4883 2.91789 46.2884 2.83393 46.0812C2.65268 45.6734 2.4701 45.2649 2.31018 44.8478C2.22822 44.6399 2.14092 44.434 2.06429 44.2234L1.8364 43.5924L1.72312 43.2765L1.61984 42.9573L1.4126 42.3183C1.34597 42.1037 1.28799 41.8878 1.22535 41.6726C1.16272 41.4574 1.09742 41.2428 1.04611 41.0242C0.595201 39.2841 0.286548 37.5102 0.123208 35.7201C0.0565725 34.8232 -0.0100619 33.9209 0.00126613 33.0227C0.0059306 32.5722 0.00126556 32.1211 0.015259 31.6706L0.0925561 30.3193C0.233854 28.5155 0.520655 26.7261 0.950154 24.9685C1.82891 21.4368 3.28978 18.0761 5.27278 15.0245C6.26793 13.499 7.38625 12.0575 8.61654 10.7145L9.08299 10.2161C9.23958 10.0508 9.39151 9.8829 9.5581 9.72498L10.5396 8.77342L11.5652 7.86918C11.7331 7.71459 11.9143 7.57599 12.0916 7.43272L12.6247 7.00559C14.0643 5.88171 15.5931 4.87686 17.1958 4.001L18.4126 3.36997C18.8244 3.17006 19.2422 2.98682 19.6567 2.79557L19.9685 2.65297L20.2857 2.53236L20.9221 2.27715C21.1346 2.19386 21.3452 2.1039 21.5604 2.0266L22.2081 1.79937C23.9377 1.20133 25.7154 0.752785 27.5216 0.458673C31.1365 -0.153338 34.8285 -0.152887 38.4432 0.460006C38.893 0.541967 39.3441 0.618597 39.7925 0.707222L41.1252 1.01774C41.3491 1.06505 41.5677 1.13369 41.7876 1.19499L42.4473 1.38357C42.6658 1.45021 42.8891 1.50218 43.1036 1.58348L43.7527 1.80604L44.401 2.02993C44.6156 2.10656 44.8262 2.19719 45.0387 2.28048L45.6751 2.53503L45.9936 2.66297L46.3055 2.8049C46.7199 2.99681 47.1377 3.18206 47.5495 3.37996L48.7656 4.01033C50.3685 4.88589 51.8971 5.89098 53.3362 7.01559L53.8692 7.44272C54.0465 7.58598 54.2277 7.72525 54.3957 7.87918L55.4212 8.78342L56.4027 9.73497C56.5693 9.89023 56.7212 10.0608 56.8778 10.2261L57.3443 10.7245C58.5738 12.0678 59.6918 13.509 60.6874 15.0338L61.409 16.1906C61.6349 16.5851 61.8541 16.9836 62.0754 17.3794C62.1293 17.4793 62.188 17.5793 62.2393 17.6779L62.3912 17.9831L62.6984 18.5915C62.7964 18.796 62.907 18.9946 62.9949 19.2045L63.2661 19.8289L63.5367 20.4533C63.626 20.6618 63.6993 20.8771 63.7819 21.0883L64.0211 21.7253L64.1411 22.0432C64.1784 22.1505 64.2077 22.2591 64.2463 22.367C64.3849 22.7988 64.5262 23.2293 64.6601 23.6617L65.012 24.9745C65.4406 26.7322 65.7272 28.5216 65.8689 30.3253L65.9462 31.676C65.9595 32.1271 65.9555 32.5775 65.9602 33.028C65.9695 33.9289 65.9069 34.8272 65.8383 35.7247C65.6756 37.515 65.3669 39.2889 64.9154 41.0289C64.8641 41.2468 64.7968 41.4614 64.7368 41.6766C64.6768 41.8918 64.6142 42.1077 64.5489 42.3223L64.3423 42.9613L64.239 43.2805L64.1257 43.597L63.8978 44.2281C63.8212 44.438 63.7339 44.6439 63.652 44.8518C63.57 45.0597 63.4914 45.2689 63.3987 45.4721L63.1282 46.0852C63.0409 46.2904 62.941 46.4903 62.8443 46.6916L62.5531 47.2913L62.2433 47.8837L62.088 48.1802L61.9248 48.4714L61.5956 49.0525C61.485 49.2457 61.3657 49.4336 61.2511 49.6242C61.0252 50.0073 60.7753 50.3758 60.5308 50.747C58.5542 53.6879 56.0976 56.2758 53.2635 58.4027C52.5539 58.9211 51.8362 59.4249 51.0892 59.8834C50.3522 60.3578 49.5819 60.7756 48.809 61.1787Z" fill="#E9345B"/>
<path d="M54.7262 30.3704C54.0218 29.5242 53.0603 28.8831 52.1774 28.1974C51.8915 27.9769 51.8255 27.8409 51.9455 27.4991C53.9259 21.8151 49.3987 15.8499 43.3902 16.2377C42.5726 16.2904 41.7636 16.5043 40.9174 16.6502C39.3707 13.3258 36.7526 11.3614 33.0024 11.3594C29.2522 11.3574 26.6314 13.3151 25.0615 16.6689C24.3731 16.5356 23.7055 16.3703 23.0271 16.2797C19.7433 15.8419 16.1637 17.7004 14.6431 20.6164C14.6431 20.6164 13.6775 22.4595 13.6069 24.0701C13.6045 24.102 13.6045 24.1341 13.6069 24.166V24.172C13.6069 24.29 13.6069 24.4072 13.6149 24.5218C13.6155 24.5301 13.6155 24.5383 13.6149 24.5465C13.6369 25.1949 13.6882 25.8432 13.7728 26.4849C13.8394 26.974 14.0213 27.4458 14.122 27.821C13.2444 28.5699 12.3082 29.1956 11.5898 30.0126C9.10966 32.8326 8.43731 36.0971 9.7347 39.6201C11.0008 43.0618 13.5722 45.0575 17.1939 45.6979C17.3978 45.7339 17.665 45.8725 17.7536 46.0424C19.1936 48.7944 21.5771 49.8446 24.5457 49.8446C25.9224 49.8446 27.1965 49.4354 28.4199 48.7278C29.0329 49.6134 29.2275 50.5769 29.1422 51.5931C28.9423 53.938 28.6465 56.2682 27.8895 58.5132C27.6503 59.2297 27.3609 59.9285 27.0232 60.6042C26.7439 61.1612 26.4259 61.6981 26.0717 62.2108C26.6048 62.3254 27.1407 62.4258 27.6796 62.512C29.1096 62.7439 30.5534 62.8811 32.0015 62.9224C32.329 62.9322 32.6564 62.9371 32.9838 62.9371C33.3123 62.9371 33.6388 62.9324 33.966 62.9224C35.4172 62.8806 36.8641 62.7431 38.2973 62.5106C38.845 62.4218 39.3885 62.3196 39.9278 62.2041C39.5767 61.6911 39.2625 61.1538 38.9876 60.5962C38.6606 59.9336 38.3853 59.2468 38.164 58.5418C37.9641 57.9874 37.7382 56.9886 37.5643 56.1283C37.3903 55.268 37.2617 54.5477 37.2617 54.5477C37.1431 53.7294 37.0225 52.9125 36.9392 52.0915C36.8199 50.9321 37.2431 49.9232 37.8581 49.0303C38.777 49.2869 39.6513 49.6533 40.5575 49.7633C43.4661 50.1125 46.0323 49.3635 47.7261 46.8373C48.2752 46.0177 48.8589 45.6959 49.7439 45.48C56.4187 43.8554 59.1314 35.6593 54.7262 30.3704ZM40.0811 42.3534C38.8723 44.3692 37.6822 46.3949 36.4488 48.3979C35.5492 49.8639 35.2067 51.4132 35.4986 53.1104C35.5879 53.6261 35.6592 54.1466 35.7338 54.6643C35.7378 54.6876 35.7411 54.7096 35.7438 54.731L35.7678 54.8962L35.8138 55.2081C35.8218 55.262 35.8324 55.3127 35.8444 55.362C36.0234 56.3743 36.2606 57.3755 36.5547 58.3606C36.5567 58.4572 36.5768 58.5526 36.614 58.6418C36.6527 58.7384 36.694 58.8344 36.7327 58.9303C36.7386 58.947 36.7406 58.955 36.7406 58.955C37.0005 59.5867 37.2737 60.2137 37.5443 60.8401C34.5717 61.2788 31.5514 61.2869 28.5765 60.8641C29.576 58.7497 30.0818 56.4761 30.3876 54.1392C30.4836 53.4062 30.5389 52.6606 30.6195 51.9223C30.7868 50.3823 30.4196 48.9783 29.5847 47.6796C28.6025 46.1537 27.6389 44.6144 26.6687 43.0818C26.6021 42.9785 26.5141 42.8819 26.4828 42.7719C26.4515 42.662 26.4722 42.5187 26.4695 42.3914C26.6068 42.4208 26.7554 42.4274 26.8773 42.4887C26.9806 42.5387 27.0519 42.6526 27.1365 42.7393C27.8029 43.4156 28.4692 44.1013 29.1462 44.767C29.62 45.2294 30.1651 45.3354 30.6582 45.1002C31.1513 44.8649 31.4092 44.3905 31.3245 43.7081C31.1246 42.0782 30.8967 40.4523 30.6782 38.8244C30.6415 38.5526 30.5182 38.2647 30.964 38.2027C31.6024 38.1108 31.747 38.1781 31.8343 38.6792C32.2248 40.9097 32.6139 43.1395 33.0017 45.3687C33.0111 45.42 33.0217 45.4706 33.0311 45.5213C33.133 46.0964 33.4142 46.5208 34.0146 46.6614C34.5923 46.7947 35.0141 46.5282 35.3646 46.0957C36.5938 44.5751 37.8261 43.058 39.0616 41.5445C39.2235 41.3446 39.3528 41.1447 39.6979 41.272C40.4969 41.5818 40.5235 41.6138 40.0811 42.3534Z" fill="#E9345B"/>
</svg>
